<mxfile host="app.diagrams.net" modified="2022-03-11T08:06:04.120Z" agent="5.0 (Windows NT 10.0; Win64; x64) AppleWebKit/537.36 (KHTML, like Gecko) Chrome/99.0.4844.51 Safari/537.36" etag="NYZ8hBH3vu25wHyHTbFK" version="16.6.5" type="github">
  <diagram id="nWmL0jzfa49lPLqvH1RQ" name="Page-1">
    <mxGraphModel dx="1422" dy="794" grid="1" gridSize="10" guides="1" tooltips="1" connect="1" arrows="1" fold="1" page="1" pageScale="1" pageWidth="827" pageHeight="1169" math="0" shadow="0">
      <root>
        <mxCell id="0" />
        <mxCell id="1" parent="0" />
        <mxCell id="btV5GvSWQ1LYSmVMzDgq-1" value="Knihovník" style="shape=umlActor;verticalLabelPosition=bottom;verticalAlign=top;html=1;outlineConnect=0;" parent="1" vertex="1">
          <mxGeometry x="130" y="380" width="30" height="60" as="geometry" />
        </mxCell>
        <mxCell id="btV5GvSWQ1LYSmVMzDgq-2" value="Zaznamenat vrácení" style="ellipse;whiteSpace=wrap;html=1;fontStyle=2" parent="1" vertex="1">
          <mxGeometry x="280" y="260" width="220" height="80" as="geometry" />
        </mxCell>
        <mxCell id="btV5GvSWQ1LYSmVMzDgq-8" value="" style="edgeStyle=orthogonalEdgeStyle;rounded=0;orthogonalLoop=1;jettySize=auto;html=1;endArrow=block;endFill=0;" parent="1" source="btV5GvSWQ1LYSmVMzDgq-3" target="btV5GvSWQ1LYSmVMzDgq-2" edge="1">
          <mxGeometry relative="1" as="geometry" />
        </mxCell>
        <mxCell id="btV5GvSWQ1LYSmVMzDgq-3" value="Vrácení knihy" style="ellipse;whiteSpace=wrap;html=1;" parent="1" vertex="1">
          <mxGeometry x="220" y="440" width="190" height="80" as="geometry" />
        </mxCell>
        <mxCell id="btV5GvSWQ1LYSmVMzDgq-9" style="edgeStyle=orthogonalEdgeStyle;rounded=0;orthogonalLoop=1;jettySize=auto;html=1;exitX=0.5;exitY=0;exitDx=0;exitDy=0;entryX=0.5;entryY=1;entryDx=0;entryDy=0;endArrow=block;endFill=0;" parent="1" source="btV5GvSWQ1LYSmVMzDgq-5" target="btV5GvSWQ1LYSmVMzDgq-2" edge="1">
          <mxGeometry relative="1" as="geometry" />
        </mxCell>
        <mxCell id="btV5GvSWQ1LYSmVMzDgq-5" value="Vrácení audiovizuálního díla" style="ellipse;whiteSpace=wrap;html=1;" parent="1" vertex="1">
          <mxGeometry x="450" y="440" width="190" height="80" as="geometry" />
        </mxCell>
        <mxCell id="btV5GvSWQ1LYSmVMzDgq-7" value="" style="endArrow=none;html=1;rounded=0;entryX=0;entryY=0.5;entryDx=0;entryDy=0;" parent="1" target="btV5GvSWQ1LYSmVMzDgq-2" edge="1">
          <mxGeometry width="50" height="50" relative="1" as="geometry">
            <mxPoint x="170" y="380" as="sourcePoint" />
            <mxPoint x="440" y="380" as="targetPoint" />
          </mxGeometry>
        </mxCell>
        <mxCell id="btV5GvSWQ1LYSmVMzDgq-10" value="TED-03: Uložit pokutu" style="ellipse;whiteSpace=wrap;html=1;" parent="1" vertex="1">
          <mxGeometry x="510" y="150" width="180" height="80" as="geometry" />
        </mxCell>
        <mxCell id="btV5GvSWQ1LYSmVMzDgq-11" value="&amp;lt;&amp;lt;extend&amp;gt;&amp;gt;" style="endArrow=open;endSize=12;dashed=1;html=1;rounded=0;entryX=0.5;entryY=0;entryDx=0;entryDy=0;exitX=0;exitY=0.5;exitDx=0;exitDy=0;" parent="1" source="btV5GvSWQ1LYSmVMzDgq-10" target="btV5GvSWQ1LYSmVMzDgq-2" edge="1">
          <mxGeometry width="160" relative="1" as="geometry">
            <mxPoint x="330" y="410" as="sourcePoint" />
            <mxPoint x="490" y="410" as="targetPoint" />
            <Array as="points">
              <mxPoint x="450" y="230" />
            </Array>
          </mxGeometry>
        </mxCell>
        <mxCell id="btV5GvSWQ1LYSmVMzDgq-17" style="edgeStyle=orthogonalEdgeStyle;rounded=0;orthogonalLoop=1;jettySize=auto;html=1;endArrow=block;endFill=0;" parent="1" edge="1">
          <mxGeometry relative="1" as="geometry">
            <mxPoint x="145" y="470" as="targetPoint" />
            <mxPoint x="145" y="560" as="sourcePoint" />
            <Array as="points">
              <mxPoint x="145" y="560" />
            </Array>
          </mxGeometry>
        </mxCell>
        <mxCell id="btV5GvSWQ1LYSmVMzDgq-12" value="Vedoucí oddělení" style="shape=umlActor;verticalLabelPosition=bottom;verticalAlign=top;html=1;" parent="1" vertex="1">
          <mxGeometry x="130" y="570" width="30" height="60" as="geometry" />
        </mxCell>
        <mxCell id="btV5GvSWQ1LYSmVMzDgq-15" value="Anulovat pokutu" style="ellipse;whiteSpace=wrap;html=1;" parent="1" vertex="1">
          <mxGeometry x="270" y="640" width="180" height="80" as="geometry" />
        </mxCell>
        <mxCell id="btV5GvSWQ1LYSmVMzDgq-16" value="" style="endArrow=none;html=1;rounded=0;exitX=0;exitY=0.5;exitDx=0;exitDy=0;" parent="1" source="btV5GvSWQ1LYSmVMzDgq-15" edge="1">
          <mxGeometry width="50" height="50" relative="1" as="geometry">
            <mxPoint x="390" y="440" as="sourcePoint" />
            <mxPoint x="170" y="600" as="targetPoint" />
          </mxGeometry>
        </mxCell>
        <mxCell id="btV5GvSWQ1LYSmVMzDgq-18" value="Prodloužit výpůjčku po termínu" style="ellipse;whiteSpace=wrap;html=1;" parent="1" vertex="1">
          <mxGeometry x="250" y="760" width="200" height="80" as="geometry" />
        </mxCell>
        <mxCell id="btV5GvSWQ1LYSmVMzDgq-20" value="" style="endArrow=none;html=1;rounded=0;exitX=0;exitY=0.5;exitDx=0;exitDy=0;" parent="1" source="btV5GvSWQ1LYSmVMzDgq-18" edge="1">
          <mxGeometry width="50" height="50" relative="1" as="geometry">
            <mxPoint x="390" y="730" as="sourcePoint" />
            <mxPoint x="170" y="660" as="targetPoint" />
          </mxGeometry>
        </mxCell>
        <mxCell id="btV5GvSWQ1LYSmVMzDgq-21" value="Autorizace zadáním heslem" style="ellipse;whiteSpace=wrap;html=1;" parent="1" vertex="1">
          <mxGeometry x="550" y="700" width="200" height="80" as="geometry" />
        </mxCell>
        <mxCell id="btV5GvSWQ1LYSmVMzDgq-22" value="&amp;lt;&amp;lt;include&amp;gt;&amp;gt;" style="endArrow=open;endSize=12;dashed=1;html=1;rounded=0;exitX=1.006;exitY=0.663;exitDx=0;exitDy=0;exitPerimeter=0;entryX=-0.005;entryY=0.4;entryDx=0;entryDy=0;entryPerimeter=0;" parent="1" source="btV5GvSWQ1LYSmVMzDgq-15" target="btV5GvSWQ1LYSmVMzDgq-21" edge="1">
          <mxGeometry width="160" relative="1" as="geometry">
            <mxPoint x="534" y="720" as="sourcePoint" />
            <mxPoint x="520" y="650" as="targetPoint" />
            <Array as="points" />
          </mxGeometry>
        </mxCell>
        <mxCell id="btV5GvSWQ1LYSmVMzDgq-24" value="&amp;lt;&amp;lt;include&amp;gt;&amp;gt;" style="endArrow=open;endSize=12;dashed=1;html=1;rounded=0;exitX=1;exitY=0.5;exitDx=0;exitDy=0;entryX=0;entryY=0.5;entryDx=0;entryDy=0;" parent="1" source="btV5GvSWQ1LYSmVMzDgq-18" target="btV5GvSWQ1LYSmVMzDgq-21" edge="1">
          <mxGeometry width="160" relative="1" as="geometry">
            <mxPoint x="580" y="800" as="sourcePoint" />
            <mxPoint x="560" y="840" as="targetPoint" />
            <Array as="points" />
          </mxGeometry>
        </mxCell>
        <mxCell id="btV5GvSWQ1LYSmVMzDgq-25" value="Čas" style="shape=umlActor;verticalLabelPosition=bottom;verticalAlign=top;html=1;outlineConnect=0;" parent="1" vertex="1">
          <mxGeometry x="130" y="110" width="30" height="60" as="geometry" />
        </mxCell>
        <mxCell id="btV5GvSWQ1LYSmVMzDgq-26" value="Odeslat email s upozorněním na konec výpůjční lhůty" style="ellipse;whiteSpace=wrap;html=1;" parent="1" vertex="1">
          <mxGeometry x="284" y="70" width="226" height="80" as="geometry" />
        </mxCell>
        <mxCell id="btV5GvSWQ1LYSmVMzDgq-27" value="" style="endArrow=none;html=1;rounded=0;entryX=0;entryY=0.5;entryDx=0;entryDy=0;" parent="1" target="btV5GvSWQ1LYSmVMzDgq-26" edge="1">
          <mxGeometry width="50" height="50" relative="1" as="geometry">
            <mxPoint x="170" y="140" as="sourcePoint" />
            <mxPoint x="250" y="120" as="targetPoint" />
          </mxGeometry>
        </mxCell>
        <mxCell id="btV5GvSWQ1LYSmVMzDgq-28" value="Když zbývají 2 dny před uplynutím lhůty" style="shape=note;whiteSpace=wrap;html=1;backgroundOutline=1;darkOpacity=0.05;" parent="1" vertex="1">
          <mxGeometry x="220" y="170" width="150" height="80" as="geometry" />
        </mxCell>
        <mxCell id="btV5GvSWQ1LYSmVMzDgq-29" value="" style="endArrow=none;dashed=1;html=1;rounded=0;exitX=0.247;exitY=-0.05;exitDx=0;exitDy=0;exitPerimeter=0;" parent="1" source="btV5GvSWQ1LYSmVMzDgq-28" edge="1">
          <mxGeometry width="50" height="50" relative="1" as="geometry">
            <mxPoint x="190" y="170" as="sourcePoint" />
            <mxPoint x="230" y="130" as="targetPoint" />
          </mxGeometry>
        </mxCell>
        <mxCell id="btV5GvSWQ1LYSmVMzDgq-30" value="" style="rounded=0;whiteSpace=wrap;html=1;fillColor=none;" parent="1" vertex="1">
          <mxGeometry x="200" y="10" width="560" height="850" as="geometry" />
        </mxCell>
        <mxCell id="btV5GvSWQ1LYSmVMzDgq-31" value="TED-02: Vrácení knihy do knihovny" style="text;html=1;strokeColor=none;fillColor=none;align=center;verticalAlign=middle;whiteSpace=wrap;rounded=0;" parent="1" vertex="1">
          <mxGeometry x="350" y="20" width="200" height="30" as="geometry" />
        </mxCell>
      </root>
    </mxGraphModel>
  </diagram>
</mxfile>
